<svg id="visual" viewBox="0 0 900 600" width="900" height="600" xmlns="http://www.w3.org/2000/svg" xmlns:xlink="http://www.w3.org/1999/xlink" version="1.1"><rect x="0" y="0" width="900" height="600" fill="#1e1e1e"></rect><defs><linearGradient id="grad1_0" x1="33.3%" y1="0%" x2="100%" y2="100%"><stop offset="20%" stop-color="#1e1e1e" stop-opacity="1"></stop><stop offset="80%" stop-color="#1e1e1e" stop-opacity="1"></stop></linearGradient></defs><defs><linearGradient id="grad2_0" x1="0%" y1="0%" x2="66.7%" y2="100%"><stop offset="20%" stop-color="#1e1e1e" stop-opacity="1"></stop><stop offset="80%" stop-color="#1e1e1e" stop-opacity="1"></stop></linearGradient></defs><g transform="translate(900, 0)"><path d="M0 297.5C-41.5 296.1 -82.9 294.6 -113.8 274.8C-144.8 255 -165.2 216.7 -186 186C-206.8 155.2 -228 131.9 -246.7 102.2C-265.3 72.4 -281.4 36.2 -297.5 0L0 0Z" fill="#f0b500"></path></g><g transform="translate(0, 600)"><path d="M0 -297.5C38.8 -293.8 77.6 -290.1 113.8 -274.8C150.1 -259.5 183.7 -232.7 200.1 -200.1C216.5 -167.5 215.8 -129.2 229.1 -94.9C242.5 -60.6 270 -30.3 297.5 0L0 0Z" fill="#f0b500"></path></g></svg>